<svg width="552" height="444" viewBox="0 0 552 444" fill="none" xmlns="http://www.w3.org/2000/svg">
<path d="M495.459 127.346C508.681 140.131 519.849 154.881 528.569 171.076C527.519 133.466 515.469 99.0755 486.429 78.0755C453.339 54.1655 421.709 39.4155 391.549 31.4155C391.859 31.5955 392.169 31.7655 392.469 31.9555C441.779 61.5755 475.449 95.2855 495.459 127.346Z" fill="#FFD7BA"/>
<path d="M517.389 183.796C522.889 223.796 514.689 261.796 500.329 292.556C517.729 257.046 529.709 212.146 528.569 171.076C519.849 154.882 508.681 140.131 495.459 127.346C507.849 147.216 515.009 166.476 517.389 183.796Z" fill="#FFB27B"/>
<path d="M391.539 31.4455C302.489 -21.5545 219.699 -1.64449 217.259 47.3655C233.689 41.7355 251.439 36.4655 270.659 31.6755C307.889 22.3955 348.199 19.9455 391.539 31.4455Z" fill="#FFC297"/>
<path d="M545.229 214.696C541.57 199.501 535.971 184.841 528.569 171.076C529.709 212.146 517.729 257.076 500.329 292.556C494.026 306.19 486.073 318.999 476.649 330.696C476.459 330.946 476.259 331.186 476.059 331.436L474.689 333.086C473.879 334.086 473.079 334.966 472.269 335.866C471.459 336.776 470.649 337.656 469.829 338.516L469.419 338.966L469.139 339.246C468.939 339.466 468.729 339.676 468.519 339.896C456.863 352.021 443.738 362.643 429.449 371.516C376.129 405.836 321.669 426.146 271.679 435.966C290.474 439.442 309.462 441.78 328.539 442.966C470.209 450.936 579.679 357.286 545.229 214.696Z" fill="#FFC297"/>
<path d="M130.859 88.7057C201.989 89.8157 216.299 67.8657 217.269 47.4757V47.3657C181.449 59.6657 152.029 73.7657 127.869 88.7057H130.859Z" fill="#FFD7BA"/>
<path d="M52.5391 313.956C49.4791 311.036 46.4791 308.062 43.5391 305.036C32.6319 293.841 23.2692 281.24 15.6992 267.566C13.5992 339.506 48.4192 403.636 111.699 428.876C149.199 443.816 206.619 448.766 271.599 435.996C186.539 420.606 83.1491 381.056 52.5391 313.956Z" fill="#FFD7BA"/>
<path d="M429.449 371.526C398.119 391.056 363.449 401.386 331.549 406.186C236.609 420.456 124.229 382.446 52.5488 313.956C83.1688 381.056 186.549 420.606 271.669 435.956C321.669 426.136 376.119 405.825 429.439 371.505L429.449 371.526Z" fill="#FFB27B"/>
<path d="M127.869 88.7056C39.0993 89.3056 -33.0008 177.916 15.7292 267.566C16.3047 249.205 19.136 230.985 24.1592 213.316C33.7892 179.176 60.0893 130.616 127.869 88.7056Z" fill="#FFC297"/>
<path d="M52.5393 313.956C43.0393 293.136 40.5393 269.656 47.7693 243.426C70.9093 159.426 144.619 76.1456 307.769 68.0956C393.009 63.8956 455.339 88.4656 495.489 127.346C475.489 95.2556 441.809 61.5756 392.489 31.9856C392.189 31.7956 391.879 31.6256 391.569 31.4456C348.219 19.9456 307.909 22.4456 270.689 31.6756C251.469 36.4656 233.689 41.7356 217.289 47.3656V47.4756C216.289 67.8656 202.009 89.8156 130.879 88.7056H127.879C60.0994 130.616 33.7993 179.176 24.1693 213.316C19.1461 230.985 16.3148 249.205 15.7393 267.566C23.3093 281.24 32.6722 293.841 43.5793 305.036C46.486 308.069 49.4726 311.042 52.5393 313.956Z" fill="#FFB27B"/>
<path d="M519.265 184.004C516.868 166.559 509.656 147.16 497.176 127.147C456.735 87.986 393.954 63.2387 308.096 67.469C143.784 75.5771 69.5396 159.468 46.2118 244.064C38.9294 270.484 41.4475 294.133 51.0164 315.104C123.236 384.088 236.43 422.372 332.038 407.999C364.19 403.165 399.091 392.76 430.648 373.089C440.589 366.683 450.088 357.538 459.908 350.185C463.487 347.463 466.855 344.473 469.981 341.241C470.192 341.019 470.404 340.808 470.605 340.586C470.807 340.365 471.069 340.093 471.3 339.851C472.126 338.975 472.942 338.098 473.758 337.182C474.574 336.265 475.39 335.329 476.196 334.382L477.575 332.72C477.777 332.468 477.978 332.226 478.17 331.974C487.498 320.078 495.496 307.196 502.021 293.559C516.546 262.567 524.805 224.273 519.265 184.004Z" fill="#FF9A52"/>
<path d="M137.772 216.344C137.772 217.877 137.373 219.257 136.576 220.484C135.779 221.649 134.859 222.569 133.816 223.244C132.283 222.201 130.596 221.312 128.756 220.576C126.916 219.84 124.8 219.472 122.408 219.472C119.28 219.472 116.612 220.147 114.404 221.496C112.257 222.784 110.601 224.685 109.436 227.2C108.332 229.653 107.78 232.628 107.78 236.124C107.78 241.521 109.129 245.631 111.828 248.452C114.588 251.273 118.391 252.684 123.236 252.684C125.751 252.684 127.867 252.347 129.584 251.672C131.363 250.997 133.049 250.231 134.644 249.372C135.687 250.169 136.484 251.181 137.036 252.408C137.649 253.635 137.956 255.045 137.956 256.64C137.956 258.051 137.588 259.339 136.852 260.504C136.116 261.669 134.859 262.651 133.08 263.448C131.976 263.939 130.412 264.429 128.388 264.92C126.364 265.411 123.911 265.656 121.028 265.656C115.508 265.656 110.479 264.613 105.94 262.528C101.463 260.443 97.8747 257.223 95.176 252.868C92.5387 248.513 91.22 242.932 91.22 236.124C91.22 229.745 92.508 224.379 95.084 220.024C97.66 215.608 101.125 212.265 105.48 209.996C109.896 207.665 114.741 206.5 120.016 206.5C123.757 206.5 126.947 206.929 129.584 207.788C132.221 208.647 134.245 209.812 135.656 211.284C137.067 212.756 137.772 214.443 137.772 216.344ZM201.116 236.032C201.116 242.411 199.828 247.808 197.252 252.224C194.737 256.64 191.272 259.983 186.856 262.252C182.501 264.521 177.533 265.656 171.952 265.656C166.371 265.656 161.372 264.521 156.956 262.252C152.601 259.983 149.167 256.64 146.652 252.224C144.137 247.808 142.88 242.411 142.88 236.032C142.88 229.653 144.168 224.287 146.744 219.932C149.32 215.516 152.785 212.173 157.14 209.904C161.556 207.635 166.493 206.5 171.952 206.5C177.411 206.5 182.348 207.635 186.764 209.904C191.18 212.173 194.676 215.516 197.252 219.932C199.828 224.287 201.116 229.653 201.116 236.032ZM184.556 236.032C184.556 230.573 183.421 226.464 181.152 223.704C178.883 220.883 175.816 219.472 171.952 219.472C168.211 219.472 165.175 220.852 162.844 223.612C160.575 226.372 159.44 230.512 159.44 236.032C159.44 241.613 160.575 245.784 162.844 248.544C165.175 251.304 168.241 252.684 172.044 252.684C175.847 252.684 178.883 251.304 181.152 248.544C183.421 245.784 184.556 241.613 184.556 236.032ZM210.328 227.2H225.14C225.385 230.021 225.538 232.72 225.6 235.296C225.722 237.872 225.784 240.325 225.784 242.656C225.784 244.925 225.784 247.164 225.784 249.372V264C225.17 264.123 224.158 264.276 222.748 264.46C221.398 264.644 220.018 264.736 218.608 264.736C215.541 264.736 213.394 264.215 212.168 263.172C210.941 262.068 210.328 260.136 210.328 257.376V227.2ZM260.836 244.68H246.024C245.656 240.387 245.441 236.431 245.38 232.812C245.38 229.193 245.38 225.759 245.38 222.508V207.972C246.054 207.849 247.066 207.696 248.416 207.512C249.765 207.328 251.145 207.236 252.556 207.236C255.622 207.236 257.769 207.788 258.996 208.892C260.222 209.935 260.836 211.836 260.836 214.596V244.68ZM260.836 239.712V262.068C259.977 262.865 258.72 263.509 257.064 264C255.469 264.491 253.537 264.736 251.268 264.736C248.998 264.736 246.852 264.399 244.828 263.724C242.804 263.049 241.148 261.424 239.86 258.848L230.752 240.264C230.138 238.976 229.556 237.78 229.004 236.676C228.513 235.511 228.022 234.315 227.532 233.088C227.041 231.861 226.489 230.512 225.876 229.04L210.328 232.444V211.1C211.186 209.873 212.505 208.953 214.284 208.34C216.062 207.727 217.964 207.42 219.988 207.42C222.257 207.42 224.404 207.788 226.428 208.524C228.513 209.199 230.169 210.793 231.396 213.308L240.596 231.892C241.209 233.119 241.761 234.315 242.252 235.48C242.804 236.645 243.325 237.841 243.816 239.068C244.368 240.295 244.92 241.644 245.472 243.116L260.836 239.712ZM272.769 223.336H288.409V263.448C287.734 263.632 286.753 263.816 285.465 264C284.177 264.184 282.797 264.276 281.325 264.276C278.688 264.276 276.602 263.509 275.069 261.976C273.536 260.443 272.769 258.357 272.769 255.72V223.336ZM288.409 249.188H272.769V216.804C272.769 214.167 273.536 212.081 275.069 210.548C276.602 209.015 278.688 208.248 281.325 208.248C282.797 208.248 284.177 208.34 285.465 208.524C286.753 208.708 287.734 208.892 288.409 209.076V249.188ZM281.325 241.92V229.408H309.109C309.538 230.083 309.906 230.941 310.213 231.984C310.581 233.027 310.765 234.192 310.765 235.48C310.765 237.749 310.274 239.405 309.293 240.448C308.312 241.429 306.962 241.92 305.245 241.92H281.325ZM281.325 264.276V251.58H312.053C312.482 252.255 312.85 253.144 313.157 254.248C313.525 255.352 313.709 256.548 313.709 257.836C313.709 260.105 313.218 261.761 312.237 262.804C311.256 263.785 309.906 264.276 308.189 264.276H281.325ZM281.325 220.852V208.248H311.685C312.114 208.923 312.482 209.781 312.789 210.824C313.157 211.867 313.341 213.032 313.341 214.32C313.341 216.589 312.85 218.245 311.869 219.288C310.888 220.331 309.538 220.852 307.821 220.852H281.325ZM366.424 216.344C366.424 217.877 366.026 219.257 365.228 220.484C364.431 221.649 363.511 222.569 362.468 223.244C360.935 222.201 359.248 221.312 357.408 220.576C355.568 219.84 353.452 219.472 351.06 219.472C347.932 219.472 345.264 220.147 343.056 221.496C340.91 222.784 339.254 224.685 338.088 227.2C336.984 229.653 336.432 232.628 336.432 236.124C336.432 241.521 337.782 245.631 340.48 248.452C343.24 251.273 347.043 252.684 351.888 252.684C354.403 252.684 356.519 252.347 358.236 251.672C360.015 250.997 361.702 250.231 363.296 249.372C364.339 250.169 365.136 251.181 365.688 252.408C366.302 253.635 366.608 255.045 366.608 256.64C366.608 258.051 366.24 259.339 365.504 260.504C364.768 261.669 363.511 262.651 361.732 263.448C360.628 263.939 359.064 264.429 357.04 264.92C355.016 265.411 352.563 265.656 349.68 265.656C344.16 265.656 339.131 264.613 334.592 262.528C330.115 260.443 326.527 257.223 323.828 252.868C321.191 248.513 319.872 242.932 319.872 236.124C319.872 229.745 321.16 224.379 323.736 220.024C326.312 215.608 329.778 212.265 334.132 209.996C338.548 207.665 343.394 206.5 348.668 206.5C352.41 206.5 355.599 206.929 358.236 207.788C360.874 208.647 362.898 209.812 364.308 211.284C365.719 212.756 366.424 214.443 366.424 216.344ZM387.489 221.128V208.248H418.125C418.554 208.923 418.922 209.812 419.229 210.916C419.597 212.02 419.781 213.216 419.781 214.504C419.781 216.773 419.259 218.46 418.217 219.564C417.235 220.607 415.886 221.128 414.169 221.128H387.489ZM404.417 208.248V221.128H373.781C373.351 220.453 372.953 219.564 372.585 218.46C372.278 217.356 372.125 216.16 372.125 214.872C372.125 212.541 372.615 210.855 373.597 209.812C374.639 208.769 376.019 208.248 377.737 208.248H404.417ZM387.673 218.644H403.773V263.908C403.098 264.092 402.055 264.276 400.645 264.46C399.234 264.644 397.793 264.736 396.321 264.736C393.131 264.736 390.893 264.184 389.605 263.08C388.317 261.915 387.673 259.921 387.673 257.1V218.644ZM447.346 221.772H446.794C446.242 223.489 445.629 225.36 444.954 227.384C444.28 229.408 443.574 231.555 442.838 233.824C442.102 236.032 441.397 238.332 440.722 240.724L438.698 251.12C438.33 252.347 437.993 253.543 437.686 254.708C437.441 255.873 437.165 256.977 436.858 258.02C436.613 259.063 436.368 260.075 436.122 261.056C435.877 262.037 435.632 262.988 435.386 263.908C434.589 264.153 433.7 264.399 432.718 264.644C431.737 264.889 430.572 265.012 429.222 265.012C426.156 265.012 423.856 264.491 422.322 263.448C420.789 262.344 420.022 260.841 420.022 258.94C420.022 258.081 420.145 257.223 420.39 256.364C420.636 255.505 420.912 254.493 421.218 253.328C421.709 251.365 422.445 248.851 423.426 245.784C424.408 242.656 425.481 239.313 426.646 235.756C427.873 232.137 429.069 228.611 430.234 225.176C431.461 221.741 432.565 218.675 433.546 215.976C434.528 213.216 435.264 211.192 435.754 209.904C436.797 209.291 438.392 208.708 440.538 208.156C442.685 207.604 444.801 207.328 446.886 207.328C449.953 207.328 452.682 207.788 455.074 208.708C457.466 209.567 458.969 210.977 459.582 212.94C460.686 216.068 461.852 219.748 463.078 223.98C464.366 228.151 465.654 232.536 466.942 237.136C468.292 241.675 469.58 246.121 470.806 250.476C472.033 254.769 473.106 258.633 474.026 262.068C473.29 262.865 472.186 263.54 470.714 264.092C469.242 264.644 467.494 264.92 465.47 264.92C462.465 264.92 460.38 264.429 459.214 263.448C458.049 262.405 457.19 260.841 456.638 258.756L454.338 249.924L452.498 240.448C451.885 238.056 451.272 235.756 450.658 233.548C450.045 231.34 449.462 229.255 448.91 227.292C448.358 225.268 447.837 223.428 447.346 221.772ZM431.798 252.408L438.146 239.988H458.386L460.318 252.408H431.798Z" fill="white"/>
</svg>
