<svg width="32" height="32" viewBox="0 0 32 32" fill="none" xmlns="http://www.w3.org/2000/svg">
<rect width="32" height="32" rx="16" fill="white"/>
<path d="M16.6582 8.37835L23.8982 20.8649C23.9649 20.9799 24 21.1104 24 21.2432C24 21.3761 23.9649 21.5066 23.8982 21.6216C23.8315 21.7367 23.7355 21.8322 23.62 21.8986C23.5045 21.965 23.3734 22 23.24 22H8.76001C8.62659 22 8.49554 21.965 8.38 21.8986C8.26446 21.8322 8.16852 21.7367 8.10182 21.6216C8.03512 21.5066 8 21.3761 8 21.2432C8 21.1104 8.03512 20.9799 8.10182 20.8649L15.3418 8.37835C15.4085 8.26331 15.5045 8.16779 15.62 8.10138C15.7355 8.03496 15.8666 8 16 8C16.1334 8 16.2645 8.03496 16.38 8.10138C16.4955 8.16779 16.5915 8.26331 16.6582 8.37835ZM15.24 18.2162V19.7297H16.76V18.2162H15.24ZM15.24 12.9189V16.7027H16.76V12.9189H15.24Z" fill="#FF9A52"/>
</svg>
