<svg width="1380" height="444" viewBox="0 0 1380 444" fill="none" xmlns="http://www.w3.org/2000/svg">
<path d="M495.459 127.346C508.681 140.131 519.849 154.881 528.569 171.076C527.519 133.466 515.469 99.0755 486.429 78.0755C453.339 54.1655 421.709 39.4155 391.549 31.4155C391.859 31.5955 392.169 31.7655 392.469 31.9555C441.779 61.5755 475.449 95.2855 495.459 127.346Z" fill="#FFD7BA"/>
<path d="M517.389 183.796C522.889 223.796 514.689 261.796 500.329 292.556C517.729 257.046 529.709 212.146 528.569 171.076C519.849 154.882 508.681 140.131 495.459 127.346C507.849 147.216 515.009 166.476 517.389 183.796Z" fill="#FFB27B"/>
<path d="M391.539 31.4455C302.489 -21.5545 219.699 -1.64449 217.259 47.3655C233.689 41.7355 251.439 36.4655 270.659 31.6755C307.889 22.3955 348.199 19.9455 391.539 31.4455Z" fill="#FFC297"/>
<path d="M545.229 214.696C541.57 199.501 535.971 184.841 528.569 171.076C529.709 212.146 517.729 257.076 500.329 292.556C494.026 306.19 486.073 318.999 476.649 330.696C476.459 330.946 476.259 331.186 476.059 331.436L474.689 333.086C473.879 334.086 473.079 334.966 472.269 335.866C471.459 336.776 470.649 337.656 469.829 338.516L469.419 338.966L469.139 339.246C468.939 339.466 468.729 339.676 468.519 339.896C456.863 352.021 443.738 362.643 429.449 371.516C376.129 405.836 321.669 426.146 271.679 435.966C290.474 439.442 309.462 441.78 328.539 442.966C470.209 450.936 579.679 357.286 545.229 214.696Z" fill="#FFC297"/>
<path d="M130.859 88.7057C201.989 89.8157 216.299 67.8657 217.269 47.4757V47.3657C181.449 59.6657 152.029 73.7657 127.869 88.7057H130.859Z" fill="#FFD7BA"/>
<path d="M52.5391 313.956C49.4791 311.036 46.4791 308.062 43.5391 305.036C32.6319 293.841 23.2692 281.24 15.6992 267.566C13.5992 339.506 48.4192 403.636 111.699 428.876C149.199 443.816 206.619 448.766 271.599 435.996C186.539 420.606 83.1491 381.056 52.5391 313.956Z" fill="#FFD7BA"/>
<path d="M429.449 371.526C398.119 391.056 363.449 401.386 331.549 406.186C236.609 420.456 124.229 382.446 52.5488 313.956C83.1688 381.056 186.549 420.606 271.669 435.956C321.669 426.136 376.119 405.825 429.439 371.505L429.449 371.526Z" fill="#FFB27B"/>
<path d="M127.869 88.7056C39.0993 89.3056 -33.0008 177.916 15.7292 267.566C16.3047 249.205 19.136 230.985 24.1592 213.316C33.7892 179.176 60.0893 130.616 127.869 88.7056Z" fill="#FFC297"/>
<path d="M52.5393 313.956C43.0393 293.136 40.5393 269.656 47.7693 243.426C70.9093 159.426 144.619 76.1456 307.769 68.0956C393.009 63.8956 455.339 88.4656 495.489 127.346C475.489 95.2556 441.809 61.5756 392.489 31.9856C392.189 31.7956 391.879 31.6256 391.569 31.4456C348.219 19.9456 307.909 22.4456 270.689 31.6756C251.469 36.4656 233.689 41.7356 217.289 47.3656V47.4756C216.289 67.8656 202.009 89.8156 130.879 88.7056H127.879C60.0994 130.616 33.7993 179.176 24.1693 213.316C19.1461 230.985 16.3148 249.205 15.7393 267.566C23.3093 281.24 32.6722 293.841 43.5793 305.036C46.486 308.069 49.4726 311.042 52.5393 313.956Z" fill="#FFB27B"/>
<path d="M519.265 184.004C516.868 166.559 509.656 147.16 497.176 127.147C456.735 87.986 393.954 63.2387 308.096 67.469C143.784 75.5771 69.5396 159.468 46.2118 244.064C38.9294 270.484 41.4475 294.133 51.0164 315.104C123.236 384.088 236.43 422.372 332.038 407.999C364.19 403.165 399.091 392.76 430.648 373.089C440.589 366.683 450.088 357.538 459.908 350.185C463.487 347.463 466.855 344.473 469.981 341.241C470.192 341.019 470.404 340.808 470.605 340.586C470.807 340.365 471.069 340.093 471.3 339.851C472.126 338.975 472.942 338.098 473.758 337.182C474.574 336.265 475.39 335.329 476.196 334.382L477.575 332.72C477.777 332.468 477.978 332.226 478.17 331.974C487.498 320.078 495.496 307.196 502.021 293.559C516.546 262.567 524.805 224.273 519.265 184.004Z" fill="#FF9A52"/>
<path d="M137.772 216.344C137.772 217.877 137.373 219.257 136.576 220.484C135.779 221.649 134.859 222.569 133.816 223.244C132.283 222.201 130.596 221.312 128.756 220.576C126.916 219.84 124.8 219.472 122.408 219.472C119.28 219.472 116.612 220.147 114.404 221.496C112.257 222.784 110.601 224.685 109.436 227.2C108.332 229.653 107.78 232.628 107.78 236.124C107.78 241.521 109.129 245.631 111.828 248.452C114.588 251.273 118.391 252.684 123.236 252.684C125.751 252.684 127.867 252.347 129.584 251.672C131.363 250.997 133.049 250.231 134.644 249.372C135.687 250.169 136.484 251.181 137.036 252.408C137.649 253.635 137.956 255.045 137.956 256.64C137.956 258.051 137.588 259.339 136.852 260.504C136.116 261.669 134.859 262.651 133.08 263.448C131.976 263.939 130.412 264.429 128.388 264.92C126.364 265.411 123.911 265.656 121.028 265.656C115.508 265.656 110.479 264.613 105.94 262.528C101.463 260.443 97.8747 257.223 95.176 252.868C92.5387 248.513 91.22 242.932 91.22 236.124C91.22 229.745 92.508 224.379 95.084 220.024C97.66 215.608 101.125 212.265 105.48 209.996C109.896 207.665 114.741 206.5 120.016 206.5C123.757 206.5 126.947 206.929 129.584 207.788C132.221 208.647 134.245 209.812 135.656 211.284C137.067 212.756 137.772 214.443 137.772 216.344ZM201.116 236.032C201.116 242.411 199.828 247.808 197.252 252.224C194.737 256.64 191.272 259.983 186.856 262.252C182.501 264.521 177.533 265.656 171.952 265.656C166.371 265.656 161.372 264.521 156.956 262.252C152.601 259.983 149.167 256.64 146.652 252.224C144.137 247.808 142.88 242.411 142.88 236.032C142.88 229.653 144.168 224.287 146.744 219.932C149.32 215.516 152.785 212.173 157.14 209.904C161.556 207.635 166.493 206.5 171.952 206.5C177.411 206.5 182.348 207.635 186.764 209.904C191.18 212.173 194.676 215.516 197.252 219.932C199.828 224.287 201.116 229.653 201.116 236.032ZM184.556 236.032C184.556 230.573 183.421 226.464 181.152 223.704C178.883 220.883 175.816 219.472 171.952 219.472C168.211 219.472 165.175 220.852 162.844 223.612C160.575 226.372 159.44 230.512 159.44 236.032C159.44 241.613 160.575 245.784 162.844 248.544C165.175 251.304 168.241 252.684 172.044 252.684C175.847 252.684 178.883 251.304 181.152 248.544C183.421 245.784 184.556 241.613 184.556 236.032ZM210.328 227.2H225.14C225.385 230.021 225.538 232.72 225.6 235.296C225.722 237.872 225.784 240.325 225.784 242.656C225.784 244.925 225.784 247.164 225.784 249.372V264C225.17 264.123 224.158 264.276 222.748 264.46C221.398 264.644 220.018 264.736 218.608 264.736C215.541 264.736 213.394 264.215 212.168 263.172C210.941 262.068 210.328 260.136 210.328 257.376V227.2ZM260.836 244.68H246.024C245.656 240.387 245.441 236.431 245.38 232.812C245.38 229.193 245.38 225.759 245.38 222.508V207.972C246.054 207.849 247.066 207.696 248.416 207.512C249.765 207.328 251.145 207.236 252.556 207.236C255.622 207.236 257.769 207.788 258.996 208.892C260.222 209.935 260.836 211.836 260.836 214.596V244.68ZM260.836 239.712V262.068C259.977 262.865 258.72 263.509 257.064 264C255.469 264.491 253.537 264.736 251.268 264.736C248.998 264.736 246.852 264.399 244.828 263.724C242.804 263.049 241.148 261.424 239.86 258.848L230.752 240.264C230.138 238.976 229.556 237.78 229.004 236.676C228.513 235.511 228.022 234.315 227.532 233.088C227.041 231.861 226.489 230.512 225.876 229.04L210.328 232.444V211.1C211.186 209.873 212.505 208.953 214.284 208.34C216.062 207.727 217.964 207.42 219.988 207.42C222.257 207.42 224.404 207.788 226.428 208.524C228.513 209.199 230.169 210.793 231.396 213.308L240.596 231.892C241.209 233.119 241.761 234.315 242.252 235.48C242.804 236.645 243.325 237.841 243.816 239.068C244.368 240.295 244.92 241.644 245.472 243.116L260.836 239.712ZM272.769 223.336H288.409V263.448C287.734 263.632 286.753 263.816 285.465 264C284.177 264.184 282.797 264.276 281.325 264.276C278.688 264.276 276.602 263.509 275.069 261.976C273.536 260.443 272.769 258.357 272.769 255.72V223.336ZM288.409 249.188H272.769V216.804C272.769 214.167 273.536 212.081 275.069 210.548C276.602 209.015 278.688 208.248 281.325 208.248C282.797 208.248 284.177 208.34 285.465 208.524C286.753 208.708 287.734 208.892 288.409 209.076V249.188ZM281.325 241.92V229.408H309.109C309.538 230.083 309.906 230.941 310.213 231.984C310.581 233.027 310.765 234.192 310.765 235.48C310.765 237.749 310.274 239.405 309.293 240.448C308.312 241.429 306.962 241.92 305.245 241.92H281.325ZM281.325 264.276V251.58H312.053C312.482 252.255 312.85 253.144 313.157 254.248C313.525 255.352 313.709 256.548 313.709 257.836C313.709 260.105 313.218 261.761 312.237 262.804C311.256 263.785 309.906 264.276 308.189 264.276H281.325ZM281.325 220.852V208.248H311.685C312.114 208.923 312.482 209.781 312.789 210.824C313.157 211.867 313.341 213.032 313.341 214.32C313.341 216.589 312.85 218.245 311.869 219.288C310.888 220.331 309.538 220.852 307.821 220.852H281.325ZM366.424 216.344C366.424 217.877 366.026 219.257 365.228 220.484C364.431 221.649 363.511 222.569 362.468 223.244C360.935 222.201 359.248 221.312 357.408 220.576C355.568 219.84 353.452 219.472 351.06 219.472C347.932 219.472 345.264 220.147 343.056 221.496C340.91 222.784 339.254 224.685 338.088 227.2C336.984 229.653 336.432 232.628 336.432 236.124C336.432 241.521 337.782 245.631 340.48 248.452C343.24 251.273 347.043 252.684 351.888 252.684C354.403 252.684 356.519 252.347 358.236 251.672C360.015 250.997 361.702 250.231 363.296 249.372C364.339 250.169 365.136 251.181 365.688 252.408C366.302 253.635 366.608 255.045 366.608 256.64C366.608 258.051 366.24 259.339 365.504 260.504C364.768 261.669 363.511 262.651 361.732 263.448C360.628 263.939 359.064 264.429 357.04 264.92C355.016 265.411 352.563 265.656 349.68 265.656C344.16 265.656 339.131 264.613 334.592 262.528C330.115 260.443 326.527 257.223 323.828 252.868C321.191 248.513 319.872 242.932 319.872 236.124C319.872 229.745 321.16 224.379 323.736 220.024C326.312 215.608 329.778 212.265 334.132 209.996C338.548 207.665 343.394 206.5 348.668 206.5C352.41 206.5 355.599 206.929 358.236 207.788C360.874 208.647 362.898 209.812 364.308 211.284C365.719 212.756 366.424 214.443 366.424 216.344ZM387.489 221.128V208.248H418.125C418.554 208.923 418.922 209.812 419.229 210.916C419.597 212.02 419.781 213.216 419.781 214.504C419.781 216.773 419.259 218.46 418.217 219.564C417.235 220.607 415.886 221.128 414.169 221.128H387.489ZM404.417 208.248V221.128H373.781C373.351 220.453 372.953 219.564 372.585 218.46C372.278 217.356 372.125 216.16 372.125 214.872C372.125 212.541 372.615 210.855 373.597 209.812C374.639 208.769 376.019 208.248 377.737 208.248H404.417ZM387.673 218.644H403.773V263.908C403.098 264.092 402.055 264.276 400.645 264.46C399.234 264.644 397.793 264.736 396.321 264.736C393.131 264.736 390.893 264.184 389.605 263.08C388.317 261.915 387.673 259.921 387.673 257.1V218.644ZM447.346 221.772H446.794C446.242 223.489 445.629 225.36 444.954 227.384C444.28 229.408 443.574 231.555 442.838 233.824C442.102 236.032 441.397 238.332 440.722 240.724L438.698 251.12C438.33 252.347 437.993 253.543 437.686 254.708C437.441 255.873 437.165 256.977 436.858 258.02C436.613 259.063 436.368 260.075 436.122 261.056C435.877 262.037 435.632 262.988 435.386 263.908C434.589 264.153 433.7 264.399 432.718 264.644C431.737 264.889 430.572 265.012 429.222 265.012C426.156 265.012 423.856 264.491 422.322 263.448C420.789 262.344 420.022 260.841 420.022 258.94C420.022 258.081 420.145 257.223 420.39 256.364C420.636 255.505 420.912 254.493 421.218 253.328C421.709 251.365 422.445 248.851 423.426 245.784C424.408 242.656 425.481 239.313 426.646 235.756C427.873 232.137 429.069 228.611 430.234 225.176C431.461 221.741 432.565 218.675 433.546 215.976C434.528 213.216 435.264 211.192 435.754 209.904C436.797 209.291 438.392 208.708 440.538 208.156C442.685 207.604 444.801 207.328 446.886 207.328C449.953 207.328 452.682 207.788 455.074 208.708C457.466 209.567 458.969 210.977 459.582 212.94C460.686 216.068 461.852 219.748 463.078 223.98C464.366 228.151 465.654 232.536 466.942 237.136C468.292 241.675 469.58 246.121 470.806 250.476C472.033 254.769 473.106 258.633 474.026 262.068C473.29 262.865 472.186 263.54 470.714 264.092C469.242 264.644 467.494 264.92 465.47 264.92C462.465 264.92 460.38 264.429 459.214 263.448C458.049 262.405 457.19 260.841 456.638 258.756L454.338 249.924L452.498 240.448C451.885 238.056 451.272 235.756 450.658 233.548C450.045 231.34 449.462 229.255 448.91 227.292C448.358 225.268 447.837 223.428 447.346 221.772ZM431.798 252.408L438.146 239.988H458.386L460.318 252.408H431.798Z" fill="white"/>
<path d="M641.788 213.012C644.812 213.012 646.968 212.48 648.256 211.416C649.6 210.296 650.272 208.98 650.272 207.468C650.272 206.068 649.74 204.948 648.676 204.108C647.668 203.212 646.156 202.456 644.14 201.84L639.688 200.412C636.664 199.404 633.976 198.284 631.624 197.052C629.328 195.82 627.536 194.224 626.248 192.264C625.016 190.304 624.4 187.812 624.4 184.788C624.4 180.14 626.164 176.444 629.692 173.7C633.22 170.956 638.12 169.584 644.392 169.584C647.584 169.584 650.412 169.892 652.876 170.508C655.396 171.124 657.356 172.048 658.756 173.28C660.212 174.456 660.94 175.912 660.94 177.648C660.94 178.936 660.632 180.056 660.016 181.008C659.456 181.904 658.728 182.688 657.832 183.36C656.544 182.464 654.836 181.708 652.708 181.092C650.58 180.42 648.228 180.084 645.652 180.084C642.964 180.084 640.948 180.532 639.604 181.428C638.26 182.268 637.588 183.388 637.588 184.788C637.588 185.908 638.036 186.832 638.932 187.56C639.828 188.232 641.172 188.848 642.964 189.408L647.584 190.836C652.68 192.404 656.6 194.504 659.344 197.136C662.088 199.712 663.46 203.184 663.46 207.552C663.46 212.256 661.64 216.092 658 219.06C654.36 221.972 649.096 223.428 642.208 223.428C638.792 223.428 635.74 223.064 633.052 222.336C630.364 221.608 628.208 220.544 626.584 219.144C625.016 217.744 624.232 216.12 624.232 214.272C624.232 212.816 624.652 211.584 625.492 210.576C626.388 209.512 627.368 208.728 628.432 208.224C629.944 209.456 631.82 210.576 634.06 211.584C636.356 212.536 638.932 213.012 641.788 213.012ZM670.763 170.088C670.763 168.184 671.407 166.588 672.695 165.3C674.039 164.012 675.719 163.368 677.735 163.368C679.807 163.368 681.487 164.012 682.775 165.3C684.063 166.588 684.707 168.184 684.707 170.088C684.707 171.936 684.063 173.532 682.775 174.876C681.487 176.22 679.807 176.892 677.735 176.892C675.719 176.892 674.039 176.22 672.695 174.876C671.407 173.532 670.763 171.936 670.763 170.088ZM671.519 199.824H683.951V221.916C683.447 222.084 682.691 222.224 681.683 222.336C680.675 222.504 679.583 222.588 678.407 222.588C675.999 222.588 674.235 222.168 673.115 221.328C672.051 220.488 671.519 218.976 671.519 216.792V199.824ZM683.951 206.292H671.519V182.184C672.023 182.016 672.779 181.848 673.787 181.68C674.851 181.512 675.971 181.428 677.147 181.428C679.555 181.428 681.291 181.848 682.355 182.688C683.419 183.472 683.951 185.012 683.951 187.308V206.292ZM726.746 210.24C726.746 214.328 725.206 217.548 722.126 219.9C719.046 222.196 714.566 223.344 708.686 223.344C704.094 223.344 700.314 222.672 697.346 221.328C694.378 219.984 692.894 217.996 692.894 215.364C692.894 214.188 693.146 213.18 693.65 212.34C694.154 211.444 694.798 210.744 695.582 210.24C697.15 211.136 698.97 211.976 701.042 212.76C703.17 213.488 705.578 213.852 708.266 213.852C712.354 213.852 714.398 212.676 714.398 210.324C714.398 209.316 714.034 208.532 713.306 207.972C712.578 207.356 711.374 206.908 709.694 206.628L706.166 205.788C701.686 204.836 698.326 203.38 696.086 201.42C693.902 199.404 692.81 196.66 692.81 193.188C692.81 189.268 694.378 186.16 697.514 183.864C700.706 181.512 704.99 180.336 710.366 180.336C713.054 180.336 715.49 180.616 717.674 181.176C719.914 181.68 721.678 182.492 722.966 183.612C724.254 184.676 724.898 186.02 724.898 187.644C724.898 188.764 724.674 189.744 724.226 190.584C723.778 191.424 723.19 192.124 722.462 192.684C721.846 192.292 720.894 191.872 719.606 191.424C718.374 190.976 717.002 190.612 715.49 190.332C714.034 190.052 712.662 189.912 711.374 189.912C709.358 189.912 707.79 190.192 706.67 190.752C705.55 191.256 704.99 192.068 704.99 193.188C704.99 193.916 705.298 194.56 705.914 195.12C706.586 195.624 707.734 196.044 709.358 196.38L712.718 197.22C717.702 198.34 721.286 199.964 723.47 202.092C725.654 204.164 726.746 206.88 726.746 210.24ZM734.595 199.824H746.943V208.812C746.943 210.38 747.447 211.528 748.455 212.256C749.463 212.984 750.891 213.348 752.739 213.348C753.579 213.348 754.475 213.264 755.427 213.096C756.435 212.872 757.275 212.62 757.947 212.34C758.395 212.844 758.787 213.46 759.123 214.188C759.515 214.916 759.711 215.756 759.711 216.708C759.711 218.612 758.927 220.18 757.359 221.412C755.791 222.644 753.159 223.26 749.463 223.26C744.759 223.26 741.091 222.196 738.459 220.068C735.883 217.94 734.595 214.468 734.595 209.652V199.824ZM742.491 192.18V182.604H758.619C758.899 183.052 759.179 183.696 759.459 184.536C759.739 185.376 759.879 186.3 759.879 187.308C759.879 188.988 759.487 190.22 758.703 191.004C757.975 191.788 756.967 192.18 755.679 192.18H742.491ZM746.943 201.924H734.595V171.768C735.155 171.6 735.939 171.432 736.947 171.264C737.955 171.04 739.019 170.928 740.139 170.928C742.547 170.928 744.283 171.348 745.347 172.188C746.411 173.028 746.943 174.568 746.943 176.808V201.924ZM772.545 207.72L772.041 199.32L792.873 196.044C792.761 194.476 792.089 193.02 790.857 191.676C789.625 190.332 787.805 189.66 785.397 189.66C782.877 189.66 780.777 190.528 779.097 192.264C777.417 193.944 776.521 196.352 776.409 199.488L776.829 205.284C777.333 208.364 778.649 210.576 780.777 211.92C782.905 213.208 785.425 213.852 788.337 213.852C790.689 213.852 792.901 213.516 794.973 212.844C797.045 212.172 798.725 211.472 800.013 210.744C800.853 211.248 801.525 211.948 802.029 212.844C802.589 213.74 802.869 214.692 802.869 215.7C802.869 217.38 802.197 218.78 800.853 219.9C799.565 221.02 797.745 221.86 795.393 222.42C793.097 222.98 790.465 223.26 787.497 223.26C783.185 223.26 779.293 222.448 775.821 220.824C772.405 219.2 769.717 216.764 767.757 213.516C765.797 210.268 764.817 206.208 764.817 201.336C764.817 197.752 765.377 194.644 766.497 192.012C767.673 189.38 769.213 187.224 771.117 185.544C773.077 183.808 775.261 182.52 777.669 181.68C780.133 180.84 782.681 180.42 785.313 180.42C789.177 180.42 792.537 181.204 795.393 182.772C798.305 184.284 800.573 186.356 802.197 188.988C803.821 191.62 804.633 194.672 804.633 198.144C804.633 199.88 804.157 201.196 803.205 202.092C802.253 202.988 800.937 203.548 799.257 203.772L772.545 207.72ZM848.901 194.196V203.772H836.385V195.792C836.385 193.888 835.825 192.488 834.705 191.592C833.585 190.696 832.185 190.248 830.505 190.248C829.273 190.248 828.153 190.444 827.145 190.836C826.193 191.172 825.381 191.536 824.709 191.928V203.772H812.277V190.668C812.277 189.268 812.557 188.12 813.117 187.224C813.733 186.272 814.601 185.432 815.721 184.704C817.569 183.416 819.837 182.38 822.525 181.596C825.213 180.812 828.013 180.42 830.925 180.42C833.613 180.42 836.133 180.84 838.485 181.68C840.837 182.52 842.881 183.808 844.617 185.544C845.065 185.88 845.485 186.244 845.877 186.636C846.325 186.972 846.661 187.364 846.885 187.812C847.445 188.708 847.921 189.716 848.313 190.836C848.705 191.956 848.901 193.076 848.901 194.196ZM873.009 195.456V203.772H860.577V195.792C860.577 193.888 860.045 192.488 858.981 191.592C857.917 190.696 856.517 190.248 854.781 190.248C853.493 190.248 852.261 190.528 851.085 191.088C849.965 191.592 848.985 192.208 848.145 192.936L841.593 185.712C843.441 184.256 845.541 183.024 847.893 182.016C850.245 180.952 853.129 180.42 856.545 180.42C859.457 180.42 862.173 180.924 864.693 181.932C867.213 182.94 869.229 184.536 870.741 186.72C872.253 188.904 873.009 191.816 873.009 195.456ZM812.277 199.908H824.709V221.916C824.149 222.084 823.365 222.224 822.357 222.336C821.349 222.504 820.257 222.588 819.081 222.588C816.729 222.588 814.993 222.168 813.873 221.328C812.809 220.488 812.277 218.976 812.277 216.792V199.908ZM836.385 199.908H848.901V221.916C848.341 222.084 847.557 222.224 846.549 222.336C845.541 222.504 844.449 222.588 843.273 222.588C840.865 222.588 839.101 222.168 837.981 221.328C836.917 220.488 836.385 218.976 836.385 216.792V199.908ZM860.577 199.908H873.009V221.916C872.505 222.084 871.749 222.224 870.741 222.336C869.733 222.504 868.641 222.588 867.465 222.588C865.057 222.588 863.293 222.168 862.173 221.328C861.109 220.488 860.577 218.976 860.577 216.792V199.908ZM899.372 214.02C900.66 214.02 901.92 213.908 903.152 213.684C904.44 213.404 905.364 213.096 905.924 212.76V204.696L898.868 205.368C896.964 205.48 895.452 205.872 894.332 206.544C893.212 207.216 892.652 208.224 892.652 209.568C892.652 210.912 893.184 212.004 894.248 212.844C895.312 213.628 897.02 214.02 899.372 214.02ZM898.868 180.42C904.692 180.42 909.34 181.652 912.812 184.116C916.284 186.524 918.02 190.276 918.02 195.372V214.44C918.02 215.84 917.656 216.988 916.928 217.884C916.2 218.724 915.276 219.452 914.156 220.068C912.476 221.076 910.376 221.86 907.856 222.42C905.392 223.036 902.564 223.344 899.372 223.344C893.66 223.344 889.096 222.224 885.68 219.984C882.32 217.744 880.64 214.412 880.64 209.988C880.64 206.18 881.816 203.268 884.168 201.252C886.52 199.18 890.02 197.92 894.668 197.472L905.84 196.296V195.288C905.84 193.384 905.084 192.012 903.572 191.172C902.116 190.332 900.016 189.912 897.272 189.912C895.144 189.912 893.044 190.164 890.972 190.668C888.956 191.172 887.136 191.76 885.512 192.432C884.84 191.984 884.252 191.312 883.748 190.416C883.3 189.464 883.076 188.484 883.076 187.476C883.076 185.124 884.364 183.416 886.94 182.352C888.564 181.68 890.44 181.204 892.568 180.924C894.752 180.588 896.852 180.42 898.868 180.42ZM970.553 212.004V186.72H982.985V213.6C982.985 214.944 982.705 216.092 982.145 217.044C981.585 217.94 980.689 218.752 979.457 219.48C977.945 220.488 975.957 221.356 973.493 222.084C971.085 222.868 968.285 223.26 965.093 223.26C960.445 223.26 956.413 222.476 952.997 220.908C949.637 219.34 947.033 216.988 945.185 213.852C943.393 210.66 942.497 206.712 942.497 202.008C942.497 197.08 943.421 193.048 945.269 189.912C947.173 186.72 949.721 184.34 952.913 182.772C956.105 181.204 959.633 180.42 963.497 180.42C965.513 180.42 967.305 180.644 968.873 181.092C970.441 181.54 971.729 182.072 972.737 182.688V192.936C971.953 192.264 970.917 191.648 969.629 191.088C968.341 190.528 966.857 190.248 965.177 190.248C963.217 190.248 961.481 190.668 959.969 191.508C958.457 192.348 957.281 193.636 956.441 195.372C955.601 197.108 955.181 199.32 955.181 202.008C955.181 205.928 956.049 208.812 957.785 210.66C959.577 212.508 961.985 213.432 965.009 213.432C966.241 213.432 967.333 213.292 968.285 213.012C969.237 212.676 969.993 212.34 970.553 212.004ZM982.985 189.156L970.553 189.24V167.316C971.057 167.148 971.813 166.98 972.821 166.812C973.829 166.644 974.921 166.56 976.097 166.56C978.561 166.56 980.325 166.98 981.389 167.82C982.453 168.66 982.985 170.2 982.985 172.44V189.156ZM998.706 207.72L998.202 199.32L1019.03 196.044C1018.92 194.476 1018.25 193.02 1017.02 191.676C1015.79 190.332 1013.97 189.66 1011.56 189.66C1009.04 189.66 1006.94 190.528 1005.26 192.264C1003.58 193.944 1002.68 196.352 1002.57 199.488L1002.99 205.284C1003.49 208.364 1004.81 210.576 1006.94 211.92C1009.07 213.208 1011.59 213.852 1014.5 213.852C1016.85 213.852 1019.06 213.516 1021.13 212.844C1023.21 212.172 1024.89 211.472 1026.17 210.744C1027.01 211.248 1027.69 211.948 1028.19 212.844C1028.75 213.74 1029.03 214.692 1029.03 215.7C1029.03 217.38 1028.36 218.78 1027.01 219.9C1025.73 221.02 1023.91 221.86 1021.55 222.42C1019.26 222.98 1016.63 223.26 1013.66 223.26C1009.35 223.26 1005.45 222.448 1001.98 220.824C998.566 219.2 995.878 216.764 993.918 213.516C991.958 210.268 990.978 206.208 990.978 201.336C990.978 197.752 991.538 194.644 992.658 192.012C993.834 189.38 995.374 187.224 997.278 185.544C999.238 183.808 1001.42 182.52 1003.83 181.68C1006.29 180.84 1008.84 180.42 1011.47 180.42C1015.34 180.42 1018.7 181.204 1021.55 182.772C1024.47 184.284 1026.73 186.356 1028.36 188.988C1029.98 191.62 1030.79 194.672 1030.79 198.144C1030.79 199.88 1030.32 201.196 1029.37 202.092C1028.41 202.988 1027.1 203.548 1025.42 203.772L998.706 207.72ZM1101.03 196.884V214.356C1101.03 215.924 1100.73 217.128 1100.11 217.968C1099.55 218.752 1098.6 219.508 1097.25 220.236C1095.74 221.076 1093.56 221.804 1090.7 222.42C1087.85 223.092 1084.99 223.428 1082.13 223.428C1076.76 223.428 1071.91 222.504 1067.6 220.656C1063.35 218.752 1059.96 215.84 1057.44 211.92C1054.97 207.944 1053.74 202.848 1053.74 196.632C1053.74 190.696 1055 185.74 1057.52 181.764C1060.04 177.732 1063.43 174.708 1067.69 172.692C1072 170.62 1076.76 169.584 1081.97 169.584C1085.44 169.584 1088.43 169.948 1090.95 170.676C1093.53 171.404 1095.49 172.412 1096.83 173.7C1098.23 174.988 1098.93 176.472 1098.93 178.152C1098.93 179.384 1098.6 180.504 1097.93 181.512C1097.31 182.464 1096.55 183.192 1095.66 183.696C1094.26 182.8 1092.49 181.96 1090.37 181.176C1088.24 180.392 1085.75 180 1082.89 180C1079.81 180 1077.04 180.672 1074.57 182.016C1072.17 183.304 1070.29 185.208 1068.95 187.728C1067.6 190.192 1066.93 193.132 1066.93 196.548C1066.93 200.244 1067.57 203.324 1068.86 205.788C1070.21 208.252 1072.03 210.1 1074.32 211.332C1076.67 212.508 1079.33 213.096 1082.3 213.096C1083.7 213.096 1084.96 212.956 1086.08 212.676C1087.26 212.396 1088.15 212.116 1088.77 211.836V202.008H1078.94C1078.61 201.448 1078.3 200.748 1078.02 199.908C1077.74 199.012 1077.6 198.06 1077.6 197.052C1077.6 195.316 1077.99 194.056 1078.77 193.272C1079.61 192.432 1080.71 192.012 1082.05 192.012H1096.16C1097.67 192.012 1098.85 192.432 1099.69 193.272C1100.59 194.112 1101.03 195.316 1101.03 196.884ZM1116.42 207.72L1115.92 199.32L1136.75 196.044C1136.64 194.476 1135.96 193.02 1134.73 191.676C1133.5 190.332 1131.68 189.66 1129.27 189.66C1126.75 189.66 1124.65 190.528 1122.97 192.264C1121.29 193.944 1120.4 196.352 1120.28 199.488L1120.7 205.284C1121.21 208.364 1122.52 210.576 1124.65 211.92C1126.78 213.208 1129.3 213.852 1132.21 213.852C1134.56 213.852 1136.78 213.516 1138.85 212.844C1140.92 212.172 1142.6 211.472 1143.89 210.744C1144.73 211.248 1145.4 211.948 1145.9 212.844C1146.46 213.74 1146.74 214.692 1146.74 215.7C1146.74 217.38 1146.07 218.78 1144.73 219.9C1143.44 221.02 1141.62 221.86 1139.27 222.42C1136.97 222.98 1134.34 223.26 1131.37 223.26C1127.06 223.26 1123.17 222.448 1119.7 220.824C1116.28 219.2 1113.59 216.764 1111.63 213.516C1109.67 210.268 1108.69 206.208 1108.69 201.336C1108.69 197.752 1109.25 194.644 1110.37 192.012C1111.55 189.38 1113.09 187.224 1114.99 185.544C1116.95 183.808 1119.14 182.52 1121.54 181.68C1124.01 180.84 1126.56 180.42 1129.19 180.42C1133.05 180.42 1136.41 181.204 1139.27 182.772C1142.18 184.284 1144.45 186.356 1146.07 188.988C1147.7 191.62 1148.51 194.672 1148.51 198.144C1148.51 199.88 1148.03 201.196 1147.08 202.092C1146.13 202.988 1144.81 203.548 1143.13 203.772L1116.42 207.72ZM1188.91 210.24C1188.91 214.328 1187.37 217.548 1184.29 219.9C1181.21 222.196 1176.73 223.344 1170.85 223.344C1166.26 223.344 1162.48 222.672 1159.51 221.328C1156.54 219.984 1155.06 217.996 1155.06 215.364C1155.06 214.188 1155.31 213.18 1155.81 212.34C1156.32 211.444 1156.96 210.744 1157.75 210.24C1159.31 211.136 1161.13 211.976 1163.21 212.76C1165.33 213.488 1167.74 213.852 1170.43 213.852C1174.52 213.852 1176.56 212.676 1176.56 210.324C1176.56 209.316 1176.2 208.532 1175.47 207.972C1174.74 207.356 1173.54 206.908 1171.86 206.628L1168.33 205.788C1163.85 204.836 1160.49 203.38 1158.25 201.42C1156.07 199.404 1154.97 196.66 1154.97 193.188C1154.97 189.268 1156.54 186.16 1159.68 183.864C1162.87 181.512 1167.15 180.336 1172.53 180.336C1175.22 180.336 1177.65 180.616 1179.84 181.176C1182.08 181.68 1183.84 182.492 1185.13 183.612C1186.42 184.676 1187.06 186.02 1187.06 187.644C1187.06 188.764 1186.84 189.744 1186.39 190.584C1185.94 191.424 1185.35 192.124 1184.63 192.684C1184.01 192.292 1183.06 191.872 1181.77 191.424C1180.54 190.976 1179.17 190.612 1177.65 190.332C1176.2 190.052 1174.83 189.912 1173.54 189.912C1171.52 189.912 1169.95 190.192 1168.83 190.752C1167.71 191.256 1167.15 192.068 1167.15 193.188C1167.15 193.916 1167.46 194.56 1168.08 195.12C1168.75 195.624 1169.9 196.044 1171.52 196.38L1174.88 197.22C1179.87 198.34 1183.45 199.964 1185.63 202.092C1187.82 204.164 1188.91 206.88 1188.91 210.24ZM1196.76 199.824H1209.11V208.812C1209.11 210.38 1209.61 211.528 1210.62 212.256C1211.63 212.984 1213.06 213.348 1214.9 213.348C1215.74 213.348 1216.64 213.264 1217.59 213.096C1218.6 212.872 1219.44 212.62 1220.11 212.34C1220.56 212.844 1220.95 213.46 1221.29 214.188C1221.68 214.916 1221.88 215.756 1221.88 216.708C1221.88 218.612 1221.09 220.18 1219.52 221.412C1217.96 222.644 1215.32 223.26 1211.63 223.26C1206.92 223.26 1203.26 222.196 1200.62 220.068C1198.05 217.94 1196.76 214.468 1196.76 209.652V199.824ZM1204.66 192.18V182.604H1220.78C1221.06 183.052 1221.34 183.696 1221.62 184.536C1221.9 185.376 1222.04 186.3 1222.04 187.308C1222.04 188.988 1221.65 190.22 1220.87 191.004C1220.14 191.788 1219.13 192.18 1217.84 192.18H1204.66ZM1209.11 201.924H1196.76V171.768C1197.32 171.6 1198.1 171.432 1199.11 171.264C1200.12 171.04 1201.18 170.928 1202.3 170.928C1204.71 170.928 1206.45 171.348 1207.51 172.188C1208.58 173.028 1209.11 174.568 1209.11 176.808V201.924ZM1246.12 214.02C1247.41 214.02 1248.67 213.908 1249.9 213.684C1251.19 213.404 1252.11 213.096 1252.67 212.76V204.696L1245.61 205.368C1243.71 205.48 1242.2 205.872 1241.08 206.544C1239.96 207.216 1239.4 208.224 1239.4 209.568C1239.4 210.912 1239.93 212.004 1240.99 212.844C1242.06 213.628 1243.77 214.02 1246.12 214.02ZM1245.61 180.42C1251.44 180.42 1256.09 181.652 1259.56 184.116C1263.03 186.524 1264.77 190.276 1264.77 195.372V214.44C1264.77 215.84 1264.4 216.988 1263.67 217.884C1262.95 218.724 1262.02 219.452 1260.9 220.068C1259.22 221.076 1257.12 221.86 1254.6 222.42C1252.14 223.036 1249.31 223.344 1246.12 223.344C1240.41 223.344 1235.84 222.224 1232.43 219.984C1229.07 217.744 1227.39 214.412 1227.39 209.988C1227.39 206.18 1228.56 203.268 1230.91 201.252C1233.27 199.18 1236.77 197.92 1241.41 197.472L1252.59 196.296V195.288C1252.59 193.384 1251.83 192.012 1250.32 191.172C1248.86 190.332 1246.76 189.912 1244.02 189.912C1241.89 189.912 1239.79 190.164 1237.72 190.668C1235.7 191.172 1233.88 191.76 1232.26 192.432C1231.59 191.984 1231 191.312 1230.49 190.416C1230.05 189.464 1229.82 188.484 1229.82 187.476C1229.82 185.124 1231.11 183.416 1233.69 182.352C1235.31 181.68 1237.19 181.204 1239.31 180.924C1241.5 180.588 1243.6 180.42 1245.61 180.42ZM1239.73 163.2C1241.3 163.2 1242.79 163.424 1244.19 163.872C1245.64 164.264 1246.96 164.684 1248.13 165.132C1249.37 165.58 1250.43 165.804 1251.33 165.804C1252.5 165.804 1253.4 165.468 1254.01 164.796C1254.63 164.068 1255.08 163.396 1255.36 162.78H1255.78C1257.35 162.78 1258.72 163.312 1259.89 164.376C1261.07 165.44 1261.66 166.868 1261.66 168.66C1261.66 170.9 1260.93 172.608 1259.47 173.784C1258.02 174.904 1256.17 175.464 1253.93 175.464C1252.19 175.464 1250.63 175.24 1249.23 174.792C1247.83 174.344 1246.54 173.924 1245.36 173.532C1244.24 173.084 1243.21 172.86 1242.25 172.86C1241.08 172.86 1240.18 173.224 1239.57 173.952C1239.01 174.624 1238.56 175.268 1238.22 175.884H1237.89C1236.32 175.884 1234.92 175.38 1233.69 174.372C1232.51 173.308 1231.92 171.852 1231.92 170.004C1231.92 168.492 1232.29 167.232 1233.01 166.224C1233.8 165.216 1234.81 164.46 1236.04 163.956C1237.27 163.452 1238.5 163.2 1239.73 163.2ZM1315.1 201.84C1315.1 206.208 1314.2 210.016 1312.41 213.264C1310.67 216.456 1308.21 218.92 1305.02 220.656C1301.83 222.392 1298.07 223.26 1293.76 223.26C1289.51 223.26 1285.75 222.42 1282.51 220.74C1279.31 219.004 1276.82 216.54 1275.03 213.348C1273.29 210.1 1272.43 206.264 1272.43 201.84C1272.43 197.416 1273.32 193.636 1275.11 190.5C1276.91 187.308 1279.4 184.844 1282.59 183.108C1285.84 181.316 1289.56 180.42 1293.76 180.42C1298.02 180.42 1301.74 181.316 1304.93 183.108C1308.13 184.844 1310.62 187.336 1312.41 190.584C1314.2 193.776 1315.1 197.528 1315.1 201.84ZM1293.76 190.248C1291.13 190.248 1289.03 191.256 1287.46 193.272C1285.95 195.288 1285.19 198.144 1285.19 201.84C1285.19 205.592 1285.95 208.476 1287.46 210.492C1288.97 212.452 1291.07 213.432 1293.76 213.432C1296.45 213.432 1298.55 212.424 1300.06 210.408C1301.57 208.392 1302.33 205.536 1302.33 201.84C1302.33 198.2 1301.57 195.372 1300.06 193.356C1298.55 191.284 1296.45 190.248 1293.76 190.248ZM651.616 310.004V284.72H664.048V311.6C664.048 312.944 663.768 314.092 663.208 315.044C662.648 315.94 661.752 316.752 660.52 317.48C659.008 318.488 657.02 319.356 654.556 320.084C652.148 320.868 649.348 321.26 646.156 321.26C641.508 321.26 637.476 320.476 634.06 318.908C630.7 317.34 628.096 314.988 626.248 311.852C624.456 308.66 623.56 304.712 623.56 300.008C623.56 295.08 624.484 291.048 626.332 287.912C628.236 284.72 630.784 282.34 633.976 280.772C637.168 279.204 640.696 278.42 644.56 278.42C646.576 278.42 648.368 278.644 649.936 279.092C651.504 279.54 652.792 280.072 653.8 280.688V290.936C653.016 290.264 651.98 289.648 650.692 289.088C649.404 288.528 647.92 288.248 646.24 288.248C644.28 288.248 642.544 288.668 641.032 289.508C639.52 290.348 638.344 291.636 637.504 293.372C636.664 295.108 636.244 297.32 636.244 300.008C636.244 303.928 637.112 306.812 638.848 308.66C640.64 310.508 643.048 311.432 646.072 311.432C647.304 311.432 648.396 311.292 649.348 311.012C650.3 310.676 651.056 310.34 651.616 310.004ZM664.048 287.156L651.616 287.24V265.316C652.12 265.148 652.876 264.98 653.884 264.812C654.892 264.644 655.984 264.56 657.16 264.56C659.624 264.56 661.388 264.98 662.452 265.82C663.516 266.66 664.048 268.2 664.048 270.44V287.156ZM679.768 305.72L679.264 297.32L700.096 294.044C699.984 292.476 699.312 291.02 698.08 289.676C696.848 288.332 695.028 287.66 692.62 287.66C690.1 287.66 688 288.528 686.32 290.264C684.64 291.944 683.744 294.352 683.632 297.488L684.052 303.284C684.556 306.364 685.872 308.576 688 309.92C690.128 311.208 692.648 311.852 695.56 311.852C697.912 311.852 700.124 311.516 702.196 310.844C704.268 310.172 705.948 309.472 707.236 308.744C708.076 309.248 708.748 309.948 709.252 310.844C709.812 311.74 710.092 312.692 710.092 313.7C710.092 315.38 709.42 316.78 708.076 317.9C706.788 319.02 704.968 319.86 702.616 320.42C700.32 320.98 697.688 321.26 694.72 321.26C690.408 321.26 686.516 320.448 683.044 318.824C679.628 317.2 676.94 314.764 674.98 311.516C673.02 308.268 672.04 304.208 672.04 299.336C672.04 295.752 672.6 292.644 673.72 290.012C674.896 287.38 676.436 285.224 678.34 283.544C680.3 281.808 682.484 280.52 684.892 279.68C687.356 278.84 689.904 278.42 692.536 278.42C696.4 278.42 699.76 279.204 702.616 280.772C705.528 282.284 707.796 284.356 709.42 286.988C711.044 289.62 711.856 292.672 711.856 296.144C711.856 297.88 711.38 299.196 710.428 300.092C709.476 300.988 708.16 301.548 706.48 301.772L679.768 305.72ZM750.092 299.084H737.408V275.9C737.408 273.772 738.024 272.12 739.256 270.944C740.488 269.712 742.14 269.096 744.212 269.096C745.388 269.096 746.508 269.18 747.572 269.348C748.692 269.516 749.532 269.656 750.092 269.768V299.084ZM744.044 301.016V290.768H769.328C769.664 291.328 769.972 292.056 770.252 292.952C770.532 293.792 770.672 294.716 770.672 295.724C770.672 297.516 770.252 298.86 769.412 299.756C768.628 300.596 767.536 301.016 766.136 301.016H744.044ZM744.212 279.344V269.096H772.184C772.52 269.6 772.828 270.3 773.108 271.196C773.388 272.092 773.528 273.044 773.528 274.052C773.528 275.844 773.108 277.188 772.268 278.084C771.484 278.924 770.392 279.344 768.992 279.344H744.212ZM737.408 294.128H750.176V319.916C749.672 320.084 748.86 320.224 747.74 320.336C746.62 320.504 745.472 320.588 744.296 320.588C741.776 320.588 739.984 320.14 738.92 319.244C737.912 318.348 737.408 316.808 737.408 314.624V294.128ZM819.384 299.84C819.384 304.208 818.488 308.016 816.696 311.264C814.96 314.456 812.496 316.92 809.304 318.656C806.112 320.392 802.36 321.26 798.048 321.26C793.792 321.26 790.04 320.42 786.792 318.74C783.6 317.004 781.108 314.54 779.316 311.348C777.58 308.1 776.712 304.264 776.712 299.84C776.712 295.416 777.608 291.636 779.4 288.5C781.192 285.308 783.684 282.844 786.876 281.108C790.124 279.316 793.848 278.42 798.048 278.42C802.304 278.42 806.028 279.316 809.22 281.108C812.412 282.844 814.904 285.336 816.696 288.584C818.488 291.776 819.384 295.528 819.384 299.84ZM798.048 288.248C795.416 288.248 793.316 289.256 791.748 291.272C790.236 293.288 789.48 296.144 789.48 299.84C789.48 303.592 790.236 306.476 791.748 308.492C793.26 310.452 795.36 311.432 798.048 311.432C800.736 311.432 802.836 310.424 804.348 308.408C805.86 306.392 806.616 303.536 806.616 299.84C806.616 296.2 805.86 293.372 804.348 291.356C802.836 289.284 800.736 288.248 798.048 288.248ZM839.638 290.516V301.016H827.206V289.004C827.206 287.436 827.57 286.12 828.298 285.056C829.082 283.936 830.146 282.956 831.49 282.116C833.338 280.996 835.55 280.128 838.126 279.512C840.758 278.84 843.502 278.504 846.358 278.504C852.07 278.504 854.926 280.408 854.926 284.216C854.926 285.112 854.786 285.952 854.506 286.736C854.282 287.52 854.002 288.192 853.666 288.752C853.106 288.64 852.406 288.556 851.566 288.5C850.782 288.388 849.914 288.332 848.962 288.332C847.282 288.332 845.602 288.528 843.922 288.92C842.242 289.312 840.814 289.844 839.638 290.516ZM827.206 297.824L839.638 298.076V319.916C839.078 320.084 838.294 320.224 837.286 320.336C836.278 320.504 835.186 320.588 834.01 320.588C831.658 320.588 829.922 320.168 828.802 319.328C827.738 318.488 827.206 316.976 827.206 314.792V297.824ZM897.053 292.196V301.772H884.537V293.792C884.537 291.888 883.977 290.488 882.857 289.592C881.737 288.696 880.337 288.248 878.657 288.248C877.425 288.248 876.305 288.444 875.297 288.836C874.345 289.172 873.533 289.536 872.861 289.928V301.772H860.429V288.668C860.429 287.268 860.709 286.12 861.269 285.224C861.885 284.272 862.753 283.432 863.873 282.704C865.721 281.416 867.989 280.38 870.677 279.596C873.365 278.812 876.165 278.42 879.077 278.42C881.765 278.42 884.285 278.84 886.637 279.68C888.989 280.52 891.033 281.808 892.769 283.544C893.217 283.88 893.637 284.244 894.029 284.636C894.477 284.972 894.813 285.364 895.037 285.812C895.597 286.708 896.073 287.716 896.465 288.836C896.857 289.956 897.053 291.076 897.053 292.196ZM921.161 293.456V301.772H908.729V293.792C908.729 291.888 908.197 290.488 907.133 289.592C906.069 288.696 904.669 288.248 902.933 288.248C901.645 288.248 900.413 288.528 899.237 289.088C898.117 289.592 897.137 290.208 896.297 290.936L889.745 283.712C891.593 282.256 893.693 281.024 896.045 280.016C898.397 278.952 901.281 278.42 904.697 278.42C907.609 278.42 910.325 278.924 912.845 279.932C915.365 280.94 917.381 282.536 918.893 284.72C920.405 286.904 921.161 289.816 921.161 293.456ZM860.429 297.908H872.861V319.916C872.301 320.084 871.517 320.224 870.509 320.336C869.501 320.504 868.409 320.588 867.233 320.588C864.881 320.588 863.145 320.168 862.025 319.328C860.961 318.488 860.429 316.976 860.429 314.792V297.908ZM884.537 297.908H897.053V319.916C896.493 320.084 895.709 320.224 894.701 320.336C893.693 320.504 892.601 320.588 891.425 320.588C889.017 320.588 887.253 320.168 886.133 319.328C885.069 318.488 884.537 316.976 884.537 314.792V297.908ZM908.729 297.908H921.161V319.916C920.657 320.084 919.901 320.224 918.893 320.336C917.885 320.504 916.793 320.588 915.617 320.588C913.209 320.588 911.445 320.168 910.325 319.328C909.261 318.488 908.729 316.976 908.729 314.792V297.908ZM947.524 312.02C948.812 312.02 950.072 311.908 951.304 311.684C952.592 311.404 953.516 311.096 954.076 310.76V302.696L947.02 303.368C945.116 303.48 943.604 303.872 942.484 304.544C941.364 305.216 940.804 306.224 940.804 307.568C940.804 308.912 941.336 310.004 942.4 310.844C943.464 311.628 945.172 312.02 947.524 312.02ZM947.02 278.42C952.844 278.42 957.492 279.652 960.964 282.116C964.436 284.524 966.172 288.276 966.172 293.372V312.44C966.172 313.84 965.808 314.988 965.08 315.884C964.352 316.724 963.428 317.452 962.308 318.068C960.628 319.076 958.528 319.86 956.008 320.42C953.544 321.036 950.716 321.344 947.524 321.344C941.812 321.344 937.248 320.224 933.832 317.984C930.472 315.744 928.792 312.412 928.792 307.988C928.792 304.18 929.968 301.268 932.32 299.252C934.672 297.18 938.172 295.92 942.82 295.472L953.992 294.296V293.288C953.992 291.384 953.236 290.012 951.724 289.172C950.268 288.332 948.168 287.912 945.424 287.912C943.296 287.912 941.196 288.164 939.124 288.668C937.108 289.172 935.288 289.76 933.664 290.432C932.992 289.984 932.404 289.312 931.9 288.416C931.452 287.464 931.228 286.484 931.228 285.476C931.228 283.124 932.516 281.416 935.092 280.352C936.716 279.68 938.592 279.204 940.72 278.924C942.904 278.588 945.004 278.42 947.02 278.42ZM997.521 288.332C994.497 288.332 991.893 289.34 989.709 291.356C987.581 293.316 986.517 296.2 986.517 300.008C986.517 303.76 987.553 306.588 989.625 308.492C991.697 310.396 994.301 311.348 997.437 311.348C999.285 311.348 1000.88 311.124 1002.23 310.676C1003.63 310.172 1004.83 309.64 1005.84 309.08C1006.79 309.752 1007.52 310.508 1008.02 311.348C1008.53 312.132 1008.78 313.112 1008.78 314.288C1008.78 316.36 1007.66 318.04 1005.42 319.328C1003.18 320.616 1000.07 321.26 996.093 321.26C991.669 321.26 987.777 320.476 984.417 318.908C981.057 317.284 978.453 314.876 976.605 311.684C974.757 308.492 973.833 304.6 973.833 300.008C973.833 295.136 974.841 291.132 976.857 287.996C978.873 284.804 981.533 282.424 984.837 280.856C988.197 279.232 991.837 278.42 995.757 278.42C999.621 278.42 1002.65 279.12 1004.83 280.52C1007.07 281.92 1008.19 283.656 1008.19 285.728C1008.19 286.736 1007.94 287.66 1007.43 288.5C1006.99 289.284 1006.45 289.984 1005.84 290.6C1004.77 290.04 1003.54 289.536 1002.14 289.088C1000.8 288.584 999.257 288.332 997.521 288.332ZM990.129 319.664L996.933 317.228C998.949 318.404 1000.35 319.832 1001.13 321.512C1001.97 323.248 1002.39 325.096 1002.39 327.056C1002.39 329.912 1001.5 332.236 999.705 334.028C997.969 335.82 995.561 336.716 992.481 336.716C990.353 336.716 988.645 336.212 987.357 335.204C986.125 334.196 985.509 332.768 985.509 330.92C985.509 330.024 985.621 329.24 985.845 328.568H986.769C988.561 328.568 989.849 328.12 990.633 327.224C991.473 326.384 991.893 325.32 991.893 324.032C991.893 323.416 991.753 322.688 991.473 321.848C991.193 321.008 990.745 320.28 990.129 319.664ZM1056.21 299.84C1056.21 304.208 1055.31 308.016 1053.52 311.264C1051.78 314.456 1049.32 316.92 1046.13 318.656C1042.94 320.392 1039.18 321.26 1034.87 321.26C1030.62 321.26 1026.86 320.42 1023.62 318.74C1020.42 317.004 1017.93 314.54 1016.14 311.348C1014.4 308.1 1013.54 304.264 1013.54 299.84C1013.54 295.416 1014.43 291.636 1016.22 288.5C1018.02 285.308 1020.51 282.844 1023.7 281.108C1026.95 279.316 1030.67 278.42 1034.87 278.42C1039.13 278.42 1042.85 279.316 1046.04 281.108C1049.24 282.844 1051.73 285.336 1053.52 288.584C1055.31 291.776 1056.21 295.528 1056.21 299.84ZM1034.87 288.248C1032.24 288.248 1030.14 289.256 1028.57 291.272C1027.06 293.288 1026.3 296.144 1026.3 299.84C1026.3 303.592 1027.06 306.476 1028.57 308.492C1030.08 310.452 1032.18 311.432 1034.87 311.432C1037.56 311.432 1039.66 310.424 1041.17 308.408C1042.68 306.392 1043.44 303.536 1043.44 299.84C1043.44 296.2 1042.68 293.372 1041.17 291.356C1039.66 289.284 1037.56 288.248 1034.87 288.248ZM1027.98 261.2C1029.55 261.2 1031.04 261.424 1032.44 261.872C1033.89 262.264 1035.21 262.684 1036.38 263.132C1037.62 263.58 1038.68 263.804 1039.58 263.804C1040.75 263.804 1041.65 263.468 1042.26 262.796C1042.88 262.068 1043.33 261.396 1043.61 260.78H1044.03C1045.6 260.78 1046.97 261.312 1048.14 262.376C1049.32 263.44 1049.91 264.868 1049.91 266.66C1049.91 268.9 1049.18 270.608 1047.72 271.784C1046.27 272.904 1044.42 273.464 1042.18 273.464C1040.44 273.464 1038.88 273.24 1037.48 272.792C1036.08 272.344 1034.79 271.924 1033.61 271.532C1032.49 271.084 1031.46 270.86 1030.5 270.86C1029.33 270.86 1028.43 271.224 1027.82 271.952C1027.26 272.624 1026.81 273.268 1026.47 273.884H1026.14C1024.57 273.884 1023.17 273.38 1021.94 272.372C1020.76 271.308 1020.17 269.852 1020.17 268.004C1020.17 266.492 1020.54 265.232 1021.26 264.224C1022.05 263.216 1023.06 262.46 1024.29 261.956C1025.52 261.452 1026.75 261.2 1027.98 261.2ZM1069.83 305.72L1069.32 297.32L1090.15 294.044C1090.04 292.476 1089.37 291.02 1088.14 289.676C1086.91 288.332 1085.09 287.66 1082.68 287.66C1080.16 287.66 1078.06 288.528 1076.38 290.264C1074.7 291.944 1073.8 294.352 1073.69 297.488L1074.11 303.284C1074.61 306.364 1075.93 308.576 1078.06 309.92C1080.19 311.208 1082.71 311.852 1085.62 311.852C1087.97 311.852 1090.18 311.516 1092.25 310.844C1094.33 310.172 1096.01 309.472 1097.29 308.744C1098.13 309.248 1098.81 309.948 1099.31 310.844C1099.87 311.74 1100.15 312.692 1100.15 313.7C1100.15 315.38 1099.48 316.78 1098.13 317.9C1096.85 319.02 1095.03 319.86 1092.67 320.42C1090.38 320.98 1087.75 321.26 1084.78 321.26C1080.47 321.26 1076.57 320.448 1073.1 318.824C1069.69 317.2 1067 314.764 1065.04 311.516C1063.08 308.268 1062.1 304.208 1062.1 299.336C1062.1 295.752 1062.66 292.644 1063.78 290.012C1064.95 287.38 1066.49 285.224 1068.4 283.544C1070.36 281.808 1072.54 280.52 1074.95 279.68C1077.41 278.84 1079.96 278.42 1082.59 278.42C1086.46 278.42 1089.82 279.204 1092.67 280.772C1095.59 282.284 1097.85 284.356 1099.48 286.988C1101.1 289.62 1101.91 292.672 1101.91 296.144C1101.91 297.88 1101.44 299.196 1100.49 300.092C1099.53 300.988 1098.22 301.548 1096.54 301.772L1069.83 305.72ZM1142.32 308.24C1142.32 312.328 1140.78 315.548 1137.7 317.9C1134.62 320.196 1130.14 321.344 1124.26 321.344C1119.66 321.344 1115.88 320.672 1112.92 319.328C1109.95 317.984 1108.46 315.996 1108.46 313.364C1108.46 312.188 1108.72 311.18 1109.22 310.34C1109.72 309.444 1110.37 308.744 1111.15 308.24C1112.72 309.136 1114.54 309.976 1116.61 310.76C1118.74 311.488 1121.15 311.852 1123.84 311.852C1127.92 311.852 1129.97 310.676 1129.97 308.324C1129.97 307.316 1129.6 306.532 1128.88 305.972C1128.15 305.356 1126.94 304.908 1125.26 304.628L1121.74 303.788C1117.26 302.836 1113.9 301.38 1111.66 299.42C1109.47 297.404 1108.38 294.66 1108.38 291.188C1108.38 287.268 1109.95 284.16 1113.08 281.864C1116.28 279.512 1120.56 278.336 1125.94 278.336C1128.62 278.336 1131.06 278.616 1133.24 279.176C1135.48 279.68 1137.25 280.492 1138.54 281.612C1139.82 282.676 1140.47 284.02 1140.47 285.644C1140.47 286.764 1140.24 287.744 1139.8 288.584C1139.35 289.424 1138.76 290.124 1138.03 290.684C1137.42 290.292 1136.46 289.872 1135.18 289.424C1133.94 288.976 1132.57 288.612 1131.06 288.332C1129.6 288.052 1128.23 287.912 1126.94 287.912C1124.93 287.912 1123.36 288.192 1122.24 288.752C1121.12 289.256 1120.56 290.068 1120.56 291.188C1120.56 291.916 1120.87 292.56 1121.48 293.12C1122.16 293.624 1123.3 294.044 1124.93 294.38L1128.29 295.22C1133.27 296.34 1136.86 297.964 1139.04 300.092C1141.22 302.164 1142.32 304.88 1142.32 308.24Z" fill="#FF9A52"/>
</svg>
