<svg width="32" height="32" viewBox="0 0 32 32" fill="none" xmlns="http://www.w3.org/2000/svg">
<rect x="0.5" y="0.5" width="31" height="31" rx="3.5" stroke="#FF9A52"/>
<path d="M9 23H10.425L20.2 13.225L18.775 11.8L9 21.575V23ZM7 25V20.75L20.2 7.575C20.4 7.39167 20.621 7.25 20.863 7.15C21.105 7.05 21.359 7 21.625 7C21.891 7 22.1493 7.05 22.4 7.15C22.6507 7.25 22.8673 7.4 23.05 7.6L24.425 9C24.625 9.18333 24.771 9.4 24.863 9.65C24.955 9.9 25.0007 10.15 25 10.4C25 10.6667 24.9543 10.921 24.863 11.163C24.7717 11.405 24.6257 11.6257 24.425 11.825L11.25 25H7ZM19.475 12.525L18.775 11.8L20.2 13.225L19.475 12.525Z" fill="#FF9A52"/>
</svg>
